<?xml version="1.0" encoding="UTF-8"?>
<svg width="25px" height="25px" viewBox="0 0 25 25" version="1.1" xmlns="http://www.w3.org/2000/svg" xmlns:xlink="http://www.w3.org/1999/xlink">
    <!-- Generator: Sketch 64 (93537) - https://sketch.com -->
    <title>noun_Error_1582579</title>
    <desc>Created with Sketch.</desc>
    <g id="Desktop" stroke="none" stroke-width="1" fill="none" fill-rule="evenodd">
        <g id="Dealer-Log-In-(Invalid-Log-In)" transform="translate(-534.000000, -474.000000)" fill="#FF2C2C">
            <g id="noun_Error_1582579" transform="translate(534.000000, 474.000000)">
                <path d="M21.3436929,21.3436929 C23.6060329,19.0813528 25,15.9506399 25,12.5 C25,9.04936015 23.6060329,5.91864717 21.3436929,3.65630713 C19.0813528,1.39396709 15.9506399,6.34268181e-16 12.5,6.34268181e-16 C9.04936015,6.34268181e-16 5.91864717,1.39396709 3.65630713,3.65630713 C1.39396709,5.91864717 6.34268181e-16,9.04936015 6.34268181e-16,12.5 C6.34268181e-16,15.9506399 1.39396709,19.0813528 3.65630713,21.3436929 C5.91864717,23.6060329 9.04936015,25 12.5,25 C15.9506399,25 19.0813528,23.6060329 21.3436929,21.3436929 Z M14.191042,17.321755 C14.191042,16.3848263 13.4369287,15.630713 12.5,15.630713 C11.5630713,15.630713 10.786106,16.3848263 10.786106,17.321755 C10.786106,18.2586837 11.5630713,19.035649 12.5,19.035649 C13.4369287,19.035649 14.191042,18.2586837 14.191042,17.321755 Z M12.5,13.916819 C11.8829982,13.916819 11.4259598,13.4140768 11.357404,12.774223 L10.786106,7.67824497 C10.6946984,6.78702011 11.6316271,5.96435101 12.5,5.96435101 C13.3683729,5.96435101 14.3053016,6.78702011 14.191042,7.67824497 L13.642596,12.774223 C13.5740402,13.4140768 13.1170018,13.916819 12.5,13.916819 Z" id="Shape"></path>
            </g>
        </g>
    </g>
</svg>