<svg xmlns="http://www.w3.org/2000/svg" width="30" height="30" viewBox="0 0 30 30"><defs><clipPath id="slbna"><path fill="#fff" d="M0 0h30v30H0z"/></clipPath></defs><g><g><g><path fill="none" stroke="#fff" stroke-miterlimit="20" stroke-width="3.46" d="M0 0v0h30v30H0v0z" clip-path="url(&quot;#slbna&quot;)"/></g><g><path fill="#fff" d="M6.96 17.465a.62.62 0 0 0-.61.619v4.96a.67.67 0 0 0 .003.053l-.001-.003v.01-.001l.007.05v-.004l.004.02v-.004c.012.06.032.114.058.163l-.001-.003.01.017-.002-.004.024.04.01.014-.002-.002c.035.05.075.092.12.129v.001a.615.615 0 0 0 .374.137h4.972a.619.619 0 1 0 0-1.237H8.463l3.892-3.893a.618.618 0 0 0-.432-1.062l-.019.001h.002a.617.617 0 0 0-.425.186l-3.893 3.894v-3.464a.619.619 0 0 0-.619-.619h-.008zM23.03 6.35a.569.569 0 0 0-.069.006l.003-.001h-4.887a.62.62 0 1 0 0 1.238h3.47l-3.9 3.893a.62.62 0 0 0 .876.875l3.9-3.893v3.464a.62.62 0 0 0 1.24 0V7.05a.62.62 0 0 0-.632-.7z"/></g></g></g></svg>
