<?xml version="1.0" encoding="UTF-8"?>
<svg width="21px" height="20px" viewBox="0 0 23 22" version="1.1" xmlns="http://www.w3.org/2000/svg" xmlns:xlink="http://www.w3.org/1999/xlink">
    <!-- Generator: Sketch 64 (93537) - https://sketch.com -->
    <title>Fill 1</title>
    <desc>Created with Sketch.</desc>
    <g id="Desktop" stroke="none" stroke-width="1" fill="none" fill-rule="evenodd">
        <g id="Home-–-Find-your-local-dealer-CTA" transform="translate(-982.000000, -2317.000000)" stroke="#174194" stroke-width="2">
            <path d="M1003.44664,2325.21465 L996.988127,2324.28318 L994.007273,2318.3045 C993.915681,2318.11856 993.724324,2318 993.514851,2318 C993.30537,2318 993.11492,2318.11857 993.023336,2318.3045 L990.023445,2324.28318 L983.555874,2325.20297 C983.311927,2325.238 983.108792,2325.40687 983.031717,2325.63951 C982.955543,2325.87215 983.019022,2326.12725 983.195857,2326.29792 L987.88513,2330.82516 L986.773323,2337.31502 C986.736141,2337.53508 986.82864,2337.75696 987.010909,2337.8881 C987.193187,2338.01924 987.434404,2338.0363 987.634822,2337.93301 L993.505758,2334.87008 L999.388534,2337.93301 C999.587134,2338.03002 999.824727,2338.00936 1000.00337,2337.87911 C1000.18201,2337.74887 1000.27271,2337.5315 1000.23824,2337.31502 L999.126432,2330.82517 L1003.80665,2326.30713 C1003.98167,2326.13646 1004.04424,2325.88225 1003.96807,2325.65051 C1003.8919,2325.41876 1003.68967,2325.24989 1003.44663,2325.21487 L1003.44664,2325.21465 Z" id="Fill-1"></path>
        </g>
    </g>
</svg>
